<svg width="110" height="26" viewBox="0 0 110 26" fill="none" xmlns="http://www.w3.org/2000/svg">
<path d="M98.25 25.5775V7.79641H102.054L102.446 11.1127C102.872 10.3366 103.406 9.67801 104.046 9.13705C104.686 8.57257 105.432 8.13745 106.286 7.83169C107.163 7.52593 108.123 7.37305 109.166 7.37305V11.8536H107.672C106.961 11.8536 106.286 11.9477 105.646 12.1358C105.006 12.3005 104.449 12.5827 103.974 12.9826C103.524 13.3589 103.169 13.8881 102.908 14.5702C102.647 15.2287 102.517 16.0637 102.517 17.075V25.5775H98.25Z" fill="#2F3A56"/>
<path d="M85.9555 26.0009C84.1777 26.0009 82.6133 25.6246 81.2622 24.8719C79.9111 24.0958 78.8563 23.0138 78.0977 21.6262C77.3392 20.2385 76.96 18.6391 76.96 16.8281C76.96 14.9465 77.3274 13.3001 78.0622 11.8889C78.8207 10.4777 79.8755 9.37225 81.2266 8.57257C82.6014 7.77289 84.1896 7.37305 85.9911 7.37305C87.7451 7.37305 89.274 7.76113 90.5777 8.53729C91.8814 9.31345 92.8889 10.3601 93.6 11.6772C94.3111 12.9708 94.6666 14.429 94.6666 16.0519C94.6666 16.2871 94.6666 16.5458 94.6666 16.8281C94.6666 17.1103 94.6429 17.4043 94.5955 17.7101H80.0177V14.9935H90.3644C90.317 13.6999 89.8785 12.6886 89.0489 11.9594C88.2192 11.2068 87.1881 10.8305 85.9555 10.8305C85.0785 10.8305 84.2726 11.0304 83.5377 11.4302C82.8029 11.8301 82.2222 12.4298 81.7955 13.2295C81.3689 14.0057 81.1555 14.9935 81.1555 16.193V17.2162C81.1555 18.3216 81.357 19.2742 81.76 20.0738C82.1866 20.8735 82.7555 21.485 83.4666 21.9084C84.2014 22.3082 85.0192 22.5082 85.92 22.5082C86.9155 22.5082 87.7333 22.2965 88.3733 21.8731C89.037 21.4498 89.5229 20.8853 89.8311 20.1797H94.1689C93.837 21.2851 93.2918 22.2847 92.5333 23.1785C91.7748 24.0487 90.8385 24.7426 89.7244 25.26C88.6103 25.7539 87.354 26.0009 85.9555 26.0009Z" fill="#2F3A56"/>
<path d="M68.7203 25.578V7.79688H72.9869V25.578H68.7203ZM70.8536 4.97448C70.0714 4.97448 69.4195 4.73928 68.898 4.26888C68.4003 3.77496 68.1514 3.1752 68.1514 2.4696C68.1514 1.74048 68.4003 1.15248 68.898 0.705599C69.4195 0.2352 70.0714 0 70.8536 0C71.6358 0 72.2758 0.2352 72.7736 0.705599C73.2951 1.15248 73.5558 1.74048 73.5558 2.4696C73.5558 3.1752 73.2951 3.77496 72.7736 4.26888C72.2758 4.73928 71.6358 4.97448 70.8536 4.97448Z" fill="#2F3A56"/>
<path d="M59.8696 25.5715V0.169922H64.1363V25.5715H59.8696Z" fill="#2F3A56"/>
<path d="M47.5761 26.0009C45.7983 26.0009 44.2339 25.6246 42.8828 24.8719C41.5317 24.0958 40.4769 23.0138 39.7183 21.6262C38.9598 20.2385 38.5806 18.6391 38.5806 16.8281C38.5806 14.9465 38.948 13.3001 39.6828 11.8889C40.4413 10.4777 41.4961 9.37225 42.8472 8.57257C44.222 7.77289 45.8102 7.37305 47.6117 7.37305C49.3658 7.37305 50.8946 7.76113 52.1983 8.53729C53.5021 9.31345 54.5095 10.3601 55.2206 11.6772C55.9317 12.9708 56.2872 14.429 56.2872 16.0519C56.2872 16.2871 56.2872 16.5458 56.2872 16.8281C56.2872 17.1103 56.2635 17.4043 56.2161 17.7101H41.6383V14.9935H51.985C51.9376 13.6999 51.4991 12.6886 50.6695 11.9594C49.8398 11.2068 48.8087 10.8305 47.5761 10.8305C46.6991 10.8305 45.8932 11.0304 45.1583 11.4302C44.4235 11.8301 43.8428 12.4298 43.4161 13.2295C42.9895 14.0057 42.7761 14.9935 42.7761 16.193V17.2162C42.7761 18.3216 42.9776 19.2742 43.3806 20.0738C43.8072 20.8735 44.3761 21.485 45.0872 21.9084C45.822 22.3082 46.6398 22.5082 47.5406 22.5082C48.5361 22.5082 49.3539 22.2965 49.9939 21.8731C50.6576 21.4498 51.1435 20.8853 51.4517 20.1797H55.7895C55.4576 21.2851 54.9124 22.2847 54.1539 23.1785C53.3954 24.0487 52.4591 24.7426 51.345 25.26C50.2309 25.7539 48.9746 26.0009 47.5761 26.0009Z" fill="#2F3A56"/>
<path d="M32.8138 25.5749C31.6049 25.5749 30.5501 25.3867 29.6494 25.0104C28.7723 24.6341 28.0849 24.0108 27.5872 23.1406C27.0894 22.2704 26.8405 21.0944 26.8405 19.6126V11.3571H23.7827V7.7938H26.8405L27.3383 3.10156H31.1072V7.7938H35.9783V11.3571H31.1072V19.6126C31.1072 20.5064 31.2968 21.1296 31.6761 21.4824C32.079 21.8117 32.7427 21.9764 33.6672 21.9764H35.8716V25.5749H32.8138Z" fill="#2F3A56"/>
<path d="M0.833984 25.571L9.93621 0.875H14.7007L23.8029 25.571H19.2873L12.2829 5.8142L5.27843 25.571H0.833984ZM4.88732 19.7498L6.0251 16.3982H18.2918L19.4295 19.7498H4.88732Z" fill="#2F3A56"/>
</svg>
