<svg width="16" height="16" viewBox="0 0 16 16" fill="none" xmlns="http://www.w3.org/2000/svg">
<path d="M2.96979 2.46967C3.26269 2.17678 3.73745 2.17678 4.03034 2.46967L9.03034 7.46967C9.32312 7.76257 9.32319 8.23736 9.03034 8.53022L4.03034 13.5302C3.73748 13.8231 3.26269 13.823 2.96979 13.5302C2.6769 13.2373 2.6769 12.7626 2.96979 12.4697L7.43952 7.99994L2.96979 3.53022C2.6769 3.23732 2.6769 2.76256 2.96979 2.46967ZM7.96979 2.46967C8.26269 2.17678 8.73745 2.17678 9.03034 2.46967L14.0303 7.46967C14.3231 7.76257 14.3232 8.23736 14.0303 8.53022L9.03034 13.5302C8.73748 13.8231 8.26269 13.823 7.96979 13.5302C7.6769 13.2373 7.6769 12.7626 7.96979 12.4697L12.4395 7.99994L7.96979 3.53022C7.6769 3.23732 7.6769 2.76256 7.96979 2.46967Z" fill="#C8CBD1"/>
</svg>
