<svg width="36" height="32" viewBox="0 0 36 32" fill="none" xmlns="http://www.w3.org/2000/svg">
<g clip-path="url(#clip0_12538_11758)" filter="url(#filter0_dd_12538_11758)">
<path d="M17 17.5C17.8284 17.5 18.5 16.8284 18.5 16C18.5 15.1716 17.8284 14.5 17 14.5C16.1716 14.5 15.5 15.1716 15.5 16C15.5 16.8284 16.1716 17.5 17 17.5Z" fill="#6A6D71"/>
<path d="M25.5 17.5C26.3284 17.5 27 16.8284 27 16C27 15.1716 26.3284 14.5 25.5 14.5C24.6716 14.5 24 15.1716 24 16C24 16.8284 24.6716 17.5 25.5 17.5Z" fill="#6A6D71"/>
<path d="M8.5 17.5C9.32843 17.5 10 16.8284 10 16C10 15.1716 9.32843 14.5 8.5 14.5C7.67157 14.5 7 15.1716 7 16C7 16.8284 7.67157 17.5 8.5 17.5Z" fill="#6A6D71"/>
</g>
<defs>
<filter id="filter0_dd_12538_11758" x="-6" y="-7" width="48" height="48" filterUnits="userSpaceOnUse" color-interpolation-filters="sRGB">
<feFlood flood-opacity="0" result="BackgroundImageFix"/>
<feColorMatrix in="SourceAlpha" type="matrix" values="0 0 0 0 0 0 0 0 0 0 0 0 0 0 0 0 0 0 127 0" result="hardAlpha"/>
<feOffset dx="1" dy="1"/>
<feGaussianBlur stdDeviation="4"/>
<feColorMatrix type="matrix" values="0 0 0 0 0.105882 0 0 0 0 0.109804 0 0 0 0 0.113725 0 0 0 0.2 0"/>
<feBlend mode="normal" in2="BackgroundImageFix" result="effect1_dropShadow_12538_11758"/>
<feColorMatrix in="SourceAlpha" type="matrix" values="0 0 0 0 0 0 0 0 0 0 0 0 0 0 0 0 0 0 127 0" result="hardAlpha"/>
<feOffset dx="1" dy="1"/>
<feGaussianBlur stdDeviation="4"/>
<feColorMatrix type="matrix" values="0 0 0 0 0.105882 0 0 0 0 0.109804 0 0 0 0 0.113725 0 0 0 0.8 0"/>
<feBlend mode="normal" in2="effect1_dropShadow_12538_11758" result="effect2_dropShadow_12538_11758"/>
<feBlend mode="normal" in="SourceGraphic" in2="effect2_dropShadow_12538_11758" result="shape"/>
</filter>
<clipPath id="clip0_12538_11758">
<rect width="32" height="32" fill="white" transform="translate(1)"/>
</clipPath>
</defs>
</svg>
