<svg width="16" height="16" viewBox="0 0 16 16" fill="none" xmlns="http://www.w3.org/2000/svg">
<path d="M13.5 8.25C13.9142 8.25 14.25 8.58579 14.25 9V13C14.25 13.4142 13.9142 13.75 13.5 13.75H2.5C2.08579 13.75 1.75 13.4142 1.75 13V9C1.75 8.58579 2.08579 8.25 2.5 8.25C2.91421 8.25 3.25 8.58579 3.25 9V12.25H12.75V9C12.75 8.58579 13.0858 8.25 13.5 8.25ZM8 1.25C8.41421 1.25 8.75 1.58579 8.75 2V7.18945L9.96973 5.96973C10.2626 5.67683 10.7374 5.67683 11.0303 5.96973C11.3232 6.26262 11.3232 6.73738 11.0303 7.03027L8.53027 9.53027C8.48167 9.57888 8.4261 9.61596 8.36914 9.64844C8.34196 9.66394 8.3153 9.68032 8.28613 9.69238C8.25407 9.70562 8.22077 9.71406 8.1875 9.72266C8.17438 9.72605 8.16183 9.73168 8.14844 9.73438C8.14292 9.73549 8.13737 9.73632 8.13184 9.7373C8.08897 9.74492 8.04505 9.75 8 9.75C7.95462 9.75 7.91035 9.74503 7.86719 9.7373C7.86165 9.73631 7.8561 9.73549 7.85059 9.73438C7.8372 9.73167 7.82464 9.72607 7.81152 9.72266C7.77828 9.71402 7.74492 9.70565 7.71289 9.69238C7.68375 9.68029 7.65703 9.66397 7.62988 9.64844C7.5732 9.61604 7.51812 9.57866 7.46973 9.53027L4.96973 7.03027C4.67683 6.73738 4.67683 6.26262 4.96973 5.96973C5.26262 5.67683 5.73738 5.67683 6.03027 5.96973L7.25 7.18945V2C7.25 1.58579 7.58579 1.25 8 1.25Z" fill="#4E5053"/>
</svg>
