<svg width="20" height="20" viewBox="0 0 20 20" fill="none" xmlns="http://www.w3.org/2000/svg">
<path d="M10 2.5C14.1421 2.5 17.5 5.85786 17.5 10C17.5 14.1421 14.1421 17.5 10 17.5C5.85786 17.5 2.5 14.1421 2.5 10C2.5 5.85786 5.85786 2.5 10 2.5ZM10 8.41699C9.58579 8.41699 9.25 8.75278 9.25 9.16699V13.334C9.25035 13.7479 9.586 14.084 10 14.084C10.414 14.084 10.7496 13.7479 10.75 13.334V9.16699C10.75 8.75278 10.4142 8.41699 10 8.41699ZM10 5.16699C9.53976 5.16699 9.16699 5.53976 9.16699 6C9.16699 6.46024 9.53976 6.83301 10 6.83301C10.4602 6.83301 10.833 6.46024 10.833 6C10.833 5.53976 10.4602 5.16699 10 5.16699Z" fill="#2F3A56"/>
</svg>
