<svg width="16" height="16" viewBox="0 0 16 16" fill="none" xmlns="http://www.w3.org/2000/svg">
<g clip-path="url(#clip0_12454_3340)">
<path d="M6.79439 12.3268L6.47502 12.6462C6.20412 12.9171 5.88247 13.132 5.52845 13.2785C5.17443 13.425 4.795 13.5003 4.41187 13.5C4.02874 13.4997 3.64942 13.4239 3.29563 13.2768C2.94183 13.1298 2.6205 12.9144 2.35002 12.6431C1.80501 12.0962 1.4993 11.3553 1.5 10.5832C1.5007 9.81114 1.80776 9.07087 2.35377 8.52496L4.52502 6.35371C4.79559 6.08306 5.11684 5.86836 5.47041 5.72188C5.82397 5.57539 6.20293 5.5 6.58564 5.5C6.96835 5.5 7.34731 5.57539 7.70088 5.72188C8.05444 5.86836 8.37569 6.08306 8.64627 6.35371C9.03125 6.737 9.30068 7.22084 9.42377 7.74996" stroke="#4E5053" stroke-width="1.5" stroke-linecap="round" stroke-linejoin="round"/>
<path d="M9.20555 3.67309L9.52492 3.35371C9.7955 3.08306 10.1167 2.86836 10.4703 2.72188C10.8239 2.57539 11.2028 2.5 11.5855 2.5C11.9683 2.5 12.3472 2.57539 12.7008 2.72188C13.0543 2.86836 13.3756 3.08306 13.6462 3.35371C13.9168 3.62429 14.1315 3.94553 14.278 4.2991C14.4245 4.65267 14.4999 5.03163 14.4999 5.41433C14.4999 5.79704 14.4245 6.176 14.278 6.52957C14.1315 6.88314 13.9168 7.20438 13.6462 7.47496L12.1212 8.99996L11.4749 9.64621C11.204 9.91715 10.8824 10.132 10.5284 10.2785C10.1743 10.425 9.79491 10.5003 9.41177 10.5C9.02864 10.4997 8.64933 10.4239 8.29553 10.2768C7.94174 10.1298 7.6204 9.91443 7.34992 9.64308C6.96713 9.25995 6.69912 8.7774 6.57617 8.24996" stroke="#4E5053" stroke-width="1.5" stroke-linecap="round" stroke-linejoin="round"/>
</g>
<defs>
<clipPath id="clip0_12454_3340">
<rect width="16" height="16" fill="white"/>
</clipPath>
</defs>
</svg>
