<svg width="29" height="28" viewBox="0 0 29 28" fill="none" xmlns="http://www.w3.org/2000/svg">
<g clip-path="url(#clip0_12454_3502)">
<path d="M24.125 14V19.25" stroke="#2F3A56" stroke-width="1.5" stroke-linecap="round" stroke-linejoin="round"/>
<path d="M21.5 16.625H26.75" stroke="#2F3A56" stroke-width="1.5" stroke-linecap="round" stroke-linejoin="round"/>
<path d="M9.25 4.375V9.625" stroke="#2F3A56" stroke-width="1.5" stroke-linecap="round" stroke-linejoin="round"/>
<path d="M6.625 7H11.875" stroke="#2F3A56" stroke-width="1.5" stroke-linecap="round" stroke-linejoin="round"/>
<path d="M18.875 20.125V23.625" stroke="#2F3A56" stroke-width="1.5" stroke-linecap="round" stroke-linejoin="round"/>
<path d="M17.125 21.875H20.625" stroke="#2F3A56" stroke-width="1.5" stroke-linecap="round" stroke-linejoin="round"/>
<path d="M16.25 8.75L19.75 12.25" stroke="#2F3A56" stroke-width="1.5" stroke-linecap="round" stroke-linejoin="round"/>
<path d="M20.3684 4.63208L5.13093 19.8696C4.78922 20.2113 4.78922 20.7653 5.13093 21.107L7.39311 23.3692C7.73482 23.7109 8.28884 23.7109 8.63055 23.3692L23.868 8.1317C24.2097 7.78999 24.2097 7.23597 23.868 6.89427L21.6058 4.63208C21.2641 4.29037 20.7101 4.29037 20.3684 4.63208Z" stroke="#2F3A56" stroke-width="1.5" stroke-linecap="round" stroke-linejoin="round"/>
</g>
<defs>
<clipPath id="clip0_12454_3502">
<rect width="28" height="28" fill="white" transform="translate(0.5)"/>
</clipPath>
</defs>
</svg>
