<svg width="28" height="28" viewBox="0 0 28 28" fill="none" xmlns="http://www.w3.org/2000/svg">
<g clip-path="url(#clip0_12454_1529)">
<path d="M18.8125 5.25H21.875C22.1071 5.25 22.3296 5.34219 22.4937 5.50628C22.6578 5.67038 22.75 5.89294 22.75 6.125V22.75C22.75 22.9821 22.6578 23.2046 22.4937 23.3687C22.3296 23.5328 22.1071 23.625 21.875 23.625H6.125C5.89294 23.625 5.67038 23.5328 5.50628 23.3687C5.34219 23.2046 5.25 22.9821 5.25 22.75V6.125C5.25 5.89294 5.34219 5.67038 5.50628 5.50628C5.67038 5.34219 5.89294 5.25 6.125 5.25H9.1875" fill="#D5E3FC"/>
<path d="M18.8125 5.25H21.875C22.1071 5.25 22.3296 5.34219 22.4937 5.50628C22.6578 5.67038 22.75 5.89294 22.75 6.125V22.75C22.75 22.9821 22.6578 23.2046 22.4937 23.3687C22.3296 23.5328 22.1071 23.625 21.875 23.625H6.125C5.89294 23.625 5.67038 23.5328 5.50628 23.3687C5.34219 23.2046 5.25 22.9821 5.25 22.75V6.125C5.25 5.89294 5.34219 5.67038 5.50628 5.50628C5.67038 5.34219 5.89294 5.25 6.125 5.25H9.1875" stroke="#2F3A56" stroke-width="1.5" stroke-linecap="round" stroke-linejoin="round"/>
<path d="M10.9375 3.5H17.0625" stroke="#2F3A56" stroke-width="1.5" stroke-linecap="round" stroke-linejoin="round"/>
<path d="M17.4421 3.28125C17.4036 3.21465 17.3483 3.15936 17.2817 3.12095C17.215 3.08255 17.1394 3.06239 17.0625 3.0625H10.9375C10.8608 3.06258 10.7854 3.08285 10.7189 3.12128C10.6525 3.15971 10.5973 3.21495 10.559 3.28144C10.5206 3.34794 10.5005 3.42335 10.5005 3.50011C10.5005 3.57687 10.5207 3.65228 10.5591 3.71875L13.6216 8.96875C13.6601 9.03505 13.7153 9.09008 13.7817 9.12833C13.8481 9.16659 13.9234 9.18673 14 9.18673C14.0767 9.18673 14.152 9.16659 14.2184 9.12833C14.2848 9.09008 14.34 9.03505 14.3785 8.96875L17.441 3.71875C17.4795 3.65234 17.4999 3.57694 17.5001 3.50015C17.5003 3.42335 17.4803 3.34785 17.4421 3.28125Z" fill="#2F3A56"/>
<path d="M14 8.75L10.6816 11.9919C10.5593 12.1143 10.4035 12.1977 10.2339 12.2315C10.0643 12.2654 9.88845 12.2483 9.72857 12.1823C9.56869 12.1163 9.43196 12.0043 9.33566 11.8607C9.23935 11.717 9.1878 11.548 9.1875 11.375V5.25L10.9375 3.5" fill="#D5E3FC"/>
<path d="M14 8.75L10.6816 11.9919C10.5593 12.1143 10.4035 12.1977 10.2339 12.2315C10.0643 12.2654 9.88845 12.2483 9.72857 12.1823C9.56869 12.1163 9.43196 12.0043 9.33566 11.8607C9.23935 11.717 9.1878 11.548 9.1875 11.375V5.25L10.9375 3.5" stroke="#2F3A56" stroke-width="1.5" stroke-linecap="round" stroke-linejoin="round"/>
<path d="M17.0625 3.5L18.8125 5.25V11.375C18.8126 11.5482 18.7614 11.7175 18.6653 11.8615C18.5691 12.0055 18.4324 12.1178 18.2724 12.184C18.1125 12.2503 17.9364 12.2677 17.7666 12.2338C17.5968 12.2 17.4408 12.1166 17.3184 11.9941L14 8.75" fill="#D5E3FC"/>
<path d="M17.0625 3.5L18.8125 5.25V11.375C18.8126 11.5482 18.7614 11.7175 18.6653 11.8615C18.5691 12.0055 18.4324 12.1178 18.2724 12.184C18.1125 12.2503 17.9364 12.2677 17.7666 12.2338C17.5968 12.2 17.4408 12.1166 17.3184 11.9941L14 8.75" stroke="#2F3A56" stroke-width="1.5" stroke-linecap="round" stroke-linejoin="round"/>
<path d="M14 8.75V23.625" stroke="#2F3A56" stroke-width="1.5" stroke-linecap="round" stroke-linejoin="round"/>
</g>
<defs>
<clipPath id="clip0_12454_1529">
<rect width="28" height="28" fill="white"/>
</clipPath>
</defs>
</svg>
