<svg width="28" height="28" viewBox="0 0 28 28" fill="none" xmlns="http://www.w3.org/2000/svg">
<g clip-path="url(#clip0_12454_683)">
<path d="M25.375 17.082V22.7487C25.375 22.9808 25.2828 23.2034 25.1187 23.3675C24.9546 23.5316 24.7321 23.6237 24.5 23.6237H8.3125" fill="#D5E3FC"/>
<path d="M25.375 17.082V22.7487C25.375 22.9808 25.2828 23.2034 25.1187 23.3675C24.9546 23.5316 24.7321 23.6237 24.5 23.6237H8.3125" stroke="#2F3A56" stroke-width="1.5" stroke-linecap="round" stroke-linejoin="round"/>
<path d="M13.2803 13.7545L22.1167 10.552C22.3339 10.4736 22.5733 10.4842 22.7826 10.5815C22.992 10.6788 23.1544 10.855 23.2345 11.0715L25.3225 16.782C25.3615 16.8893 25.3789 17.0032 25.3738 17.1172C25.3686 17.2312 25.341 17.3431 25.2925 17.4465C25.2441 17.5498 25.1757 17.6426 25.0913 17.7194C25.0069 17.7963 24.9082 17.8557 24.8008 17.8943L9.6425 23.3882C9.21663 23.545 8.76632 23.625 8.3125 23.6245" fill="#D5E3FC"/>
<path d="M13.2803 13.7545L22.1167 10.552C22.3339 10.4736 22.5733 10.4842 22.7826 10.5815C22.992 10.6788 23.1544 10.855 23.2345 11.0715L25.3225 16.782C25.3615 16.8893 25.3789 17.0032 25.3738 17.1172C25.3686 17.2312 25.341 17.3431 25.2925 17.4465C25.2441 17.5498 25.1757 17.6426 25.0913 17.7194C25.0069 17.7963 24.9082 17.8557 24.8008 17.8943L9.6425 23.3882C9.21663 23.545 8.76632 23.625 8.3125 23.6245" stroke="#2F3A56" stroke-width="1.5" stroke-linecap="round" stroke-linejoin="round"/>
<path d="M12.1228 20.3698C12.0367 20.8769 11.8512 21.362 11.5771 21.7973C11.303 22.2325 10.9456 22.6093 10.5255 22.9061C10.1054 23.2028 9.63078 23.4137 9.12895 23.5265C8.62711 23.6394 8.10794 23.652 7.60122 23.5636C6.57773 23.3759 5.67016 22.7907 5.07684 21.9358C4.48352 21.081 4.2527 20.0261 4.43481 19.0016L7.16919 3.34673C7.20955 3.11991 7.33773 2.91816 7.52591 2.78526C7.71409 2.65237 7.94709 2.59905 8.17435 2.63688L14.1539 3.7011C14.3813 3.74266 14.583 3.87249 14.7149 4.06225C14.8469 4.25202 14.8984 4.48629 14.8583 4.71391L12.1228 20.3698Z" fill="#D5E3FC" stroke="#2F3A56" stroke-width="1.5" stroke-linecap="round" stroke-linejoin="round"/>
<path d="M8.3125 21C9.03737 21 9.625 20.4124 9.625 19.6875C9.625 18.9626 9.03737 18.375 8.3125 18.375C7.58763 18.375 7 18.9626 7 19.6875C7 20.4124 7.58763 21 8.3125 21Z" fill="#2F3A56"/>
</g>
<defs>
<clipPath id="clip0_12454_683">
<rect width="28" height="28" fill="white"/>
</clipPath>
</defs>
</svg>
