<svg width="20" height="20" viewBox="0 0 20 20" fill="none" xmlns="http://www.w3.org/2000/svg">
<path d="M10 1.75C13.1757 1.75 15.75 4.32437 15.75 7.5C15.75 9.50547 14.7225 11.2699 13.166 12.2988C15.1864 13.0261 16.8699 14.4307 17.9912 16.2363L18.1494 16.499L18.1846 16.5674C18.3408 16.9139 18.212 17.3299 17.876 17.5244C17.54 17.7189 17.1153 17.6234 16.8926 17.3154L16.8506 17.251L16.7178 17.0283C15.3052 14.7525 12.8599 13.25 10 13.25C7.048 13.25 4.53822 14.8513 3.14943 17.251C2.94193 17.6094 2.48251 17.7319 2.12404 17.5244C1.76562 17.3169 1.64315 16.8575 1.85061 16.499C2.96851 14.5674 4.71505 13.0601 6.83205 12.2979C5.27661 11.2687 4.25002 9.5047 4.25002 7.5C4.25002 4.32436 6.82438 1.75 10 1.75ZM10 3.25C7.65281 3.25 5.75002 5.15279 5.75002 7.5C5.75002 9.84721 7.65281 11.75 10 11.75C12.3472 11.75 14.25 9.84721 14.25 7.5C14.25 5.15279 12.3472 3.25 10 3.25Z" fill="#2F3A56"/>
</svg>
