<svg width="32" height="32" viewBox="0 0 32 32" fill="none" xmlns="http://www.w3.org/2000/svg">
<path d="M24.4697 6.46967C24.7626 6.17678 25.2373 6.17678 25.5302 6.46967C25.8231 6.76257 25.8231 7.23734 25.5302 7.53022L17.0605 15.9999L25.5302 24.4697L25.582 24.5263C25.8222 24.8209 25.8048 25.2556 25.5302 25.5302C25.2556 25.8048 24.8209 25.8222 24.5263 25.582L24.4697 25.5302L15.9999 17.0605L7.53022 25.5302C7.23734 25.8231 6.76257 25.8231 6.46967 25.5302C6.17678 25.2373 6.17678 24.7626 6.46967 24.4697L14.9394 15.9999L6.46967 7.53022C6.17678 7.23732 6.17678 6.76256 6.46967 6.46967C6.76256 6.17678 7.23732 6.17678 7.53022 6.46967L15.9999 14.9394L24.4697 6.46967Z" fill="#2F3A56"/>
</svg>
